<?xml version="1.0" encoding="utf-8"?>
<!-- Generator: Adobe Illustrator 21.0.0, SVG Export Plug-In . SVG Version: 6.00 Build 0)  -->
<svg version="1.1" id="Layer_1" xmlns="http://www.w3.org/2000/svg" xmlns:xlink="http://www.w3.org/1999/xlink" x="0px" y="0px"
	 viewBox="0 0 550 400" style="enable-background:new 0 0 550 400;" xml:space="preserve">
<style type="text/css">
	.st0{fill:none;stroke:#FFFFFF;stroke-width:2;stroke-linecap:round;stroke-linejoin:round;}
</style>
<g>
	<g transform="matrix( 1, 0, 0, 1, 0,0) ">
		<g>
			<path id="Layer2_0_2_STROKES" class="st0" d="M-277.6,62.2V72h3.5v-9.9H-277.6h-7.6V72h7.6 M-300.9,91v7.9h6.9l8.8-26.8h-5.3
				 M-273.8,62.2V72h3.5v-9.9H-273.8l-0.2-13.6l-0.1,13.6H-273.8z M-273.8,72h-0.3 M-270.4,72h7.6v-9.9h-7.6 M-262.8,62.2v-9.9
				 M-285.2,62.2v-9.9 M-257.6,72h-5.2l8.7,26.8h6.9V91 M-246.7,156.4V152c-0.1-0.3-0.1-0.5-0.1-0.8v-0.1c-0.1-1-0.4-1.9-1.1-2.6
				c-0.8-0.7-1.6-1.1-2.6-1.1c-1.1,0-1.9,0.4-2.6,1.1c-0.8,0.8-1.1,1.6-1.1,2.6c0,0.3,0,0.6,0.1,0.8v4.4 M-301.3,156.4V152
				c0.1-0.3,0.1-0.5,0.1-0.8V151c0-1-0.4-1.8-1.1-2.5c-0.7-0.7-1.6-1.1-2.6-1.1c-1,0-1.9,0.4-2.6,1.1c-0.7,0.7-1,1.5-1.1,2.5v27
				h22.8h11.7v-6.6c-0.1,0-0.1,0-0.2,0c-3.1-0.1-5.8-1.2-8.1-3.5c-2.3-2.3-3.5-5.1-3.5-8.3s1.2-6,3.5-8.3c2.3-2.3,4.9-3.4,8.1-3.5
				c0.1,0,0.1,0,0.2,0h0.4c3.2,0.1,5.9,1.2,8.1,3.5c2.3,2.3,3.4,5.1,3.4,8.3s-1.1,6-3.4,8.3c-2.3,2.3-5,3.4-8.1,3.5h-0.1v6.6h11.6
				h22.9v-27c0-1-0.4-1.8-1.1-2.5c-0.7-0.7-1.6-1.1-2.6-1.1c-1,0-1.9,0.4-2.6,1.1c-0.7,0.7-1.1,1.6-1.1,2.6 M-247.1,98.9V120
				l7.8,23.8v0.5v6.7 M-294,98.9l-6.9,21.1l-7.8,23.8v0.5h15.5V132h6.9l12.2-30.7l12.1,30.7h7v12.3h15.5 M-274.2,154.8v6.2l4.8,1.9
				 M-274.1,171.4h0.3 M-285.8,178v8.3l7.5,4v7.9h4.1h0.3h4.1v-7.9l7.5-4V178 M-274.1,178h0.3 M-254,98.9l6.9,21.1 M-274.1,48.6
				l-0.1-10.5 M-308.7,144.3v6.7 M-301.2,151c0-1,0.4-1.8,1.1-2.5c0.7-0.7,1.6-1.1,2.6-1.1c1,0,1.9,0.4,2.6,1.1
				c0.8,0.8,1.1,1.6,1.1,2.6c0,0.3-0.1,0.6-0.2,0.8v4.4 M-300.9,120V98.9 M-285.1,246.8h-8v8.3h8V246.8h7.9v-27.1c0-0.3,0-0.5,0-0.7
				c0-1.8-0.6-3.4-1.9-4.7c-1.3-1.3-2.9-2-4.7-2s-3.3,0.7-4.6,2c-1.1,1.1-1.7,2.3-1.9,3.6v2.1v7.9v17.8 M-290.3,228h-18.4v26.7v19
				v30.2h34.5v-30.1h0.1c0-0.2,0-0.3,0-0.5c0-2.1-0.8-3.9-2.3-5.5c-1.5-1.5-3.3-2.2-5.5-2.2c-2.1,0-3.9,0.7-5.4,2.2
				c-1.3,1.3-2.1,2.9-2.3,4.7c0.1,0.2,0.1,0.4,0.1,0.8c0,0.6,0,1.4-0.1,2.5v27.7 M-411.2,213.1h-22.4h-4.4l-11.1,33.8h15.5
				l11.2-10.8l11.1,10.8h15.6l-11.2-33.8H-411.2v-11.8h-6.9v10.5 M-402.4,213.1h-4.4 M-411.2,201.3v-7.1 M-441.3,263
				c0-1.3,0-2.6,0-4c0-0.2,0-0.4,0-0.7v-0.7c-0.1-1-0.5-1.8-1.2-2.5c-0.8-0.8-1.7-1.1-2.8-1.1c-1.1,0-2,0.4-2.8,1.1
				c-0.7,0.7-1,1.4-1.1,2.2v104.6h11.1v-19.3c0.7-2.7,2.1-5.1,4.2-7.3c3.2-3.2,7-4.8,11.5-4.8h0.1c4.5,0.1,8.3,1.7,11.5,4.8
				c2.2,2.2,3.6,4.6,4.3,7.3v19.3h11.1v-53.9v-34.4v-16.3c-0.1-0.8-0.5-1.5-1.1-2.2c-0.8-0.8-1.8-1.1-2.9-1.1c-1.1,0-2,0.4-2.7,1.1
				c-0.8,0.7-1.2,1.5-1.2,2.5v0.7c0,0.3,0,0.5,0,0.7c0,1.4,0,2.7,0,4 M-403.4,257.7c-0.1-1-0.4-1.8-1.1-2.5
				c-0.8-0.8-1.7-1.1-2.8-1.1c-1.1,0-2,0.4-2.8,1.1c-0.4,0.4-0.7,0.8-0.9,1.3c-0.2,0.4-0.3,0.8-0.3,1.2v5.5 M-391.4,246.8h-4.1
				l0.1,0.3v7.5h86.9 M-395.5,254.7v2.7 M-395.5,308.1h7.2V290c0-0.2,0-0.3,0-0.5c0-1.3,0.4-2.3,1.3-3.2c0.9-0.9,2-1.3,3.2-1.3
				s2.3,0.4,3.2,1.3c0.9,0.9,1.3,2,1.3,3.2c0.1-1.2,0.5-2.3,1.4-3.2c0.9-0.9,2-1.3,3.2-1.3s2.3,0.4,3.2,1.3c0.9,0.9,1.3,2,1.3,3.2
				c0,0.2,0,0.4,0,0.5v17.7 M-379.2,289.4v0.2c0,0.2,0,0.3,0,0.5v17.4 M-388.3,308.1h26.9V290c0-0.2,0-0.3,0-0.5
				c0-1.3,0.5-2.3,1.4-3.2c0.9-0.9,1.9-1.3,3.2-1.3s2.3,0.4,3.2,1.3c0.9,0.9,1.3,2,1.4,3.2c0-1.2,0.4-2.3,1.3-3.2
				c0.9-0.9,2-1.3,3.2-1.3c1.3,0,2.3,0.4,3.2,1.3c0.9,0.9,1.3,2,1.3,3.2c0,0.2,0,0.4,0,0.5v17.7 M-422.4,277.3
				c-4.5,0.1-8.3,1.7-11.5,4.8c-2.2,2.2-3.6,4.6-4.2,7.4h7.8h7.9h7.8h7.9c-0.7-2.8-2.1-5.2-4.3-7.4
				C-414,279-417.9,277.4-422.4,277.3L-422.4,277.3z M-406.6,289.5v10.5v19.8h-7.9h-7.8h-7.9h-7.8v-19.8v-10.5 M-388.9,315.8h9.9
				h9.9v9.2h-9.9h-9.9V315.8z M-395.5,361.9h7.8V344c0-2.6,0.9-4.7,2.6-6.5c1.8-1.8,3.9-2.6,6.5-2.6c2.5,0,4.6,0.9,6.4,2.6
				c1.8,1.8,2.6,3.9,2.6,6.5v17.9h8.2V344c0-2.6,0.9-4.7,2.6-6.5c1.8-1.8,3.9-2.6,6.5-2.6c2.5,0,4.6,0.9,6.4,2.6
				c1.8,1.8,2.6,3.9,2.6,6.5v17.9h8.2V344c0-2.6,0.9-4.7,2.6-6.5c1.8-1.8,4-2.6,6.5-2.6c2.5,0,4.6,0.9,6.4,2.6
				c1.8,1.8,2.7,3.9,2.7,6.5v17.9h8.1v-53.9h-25.8h-26.9 M-378.9,315.8v9.2 M-351.5,315.8h9.9v9.2h-9.9h-9.9v-9.2H-351.5v9.2
				 M-334.5,308.1V290c0-0.2,0-0.3,0-0.5c0-1.3,0.5-2.3,1.4-3.2c0.9-0.9,1.9-1.3,3.2-1.3s2.3,0.4,3.2,1.3c0.9,0.9,1.3,2,1.4,3.2
				c0-1.2,0.5-2.3,1.4-3.2c0.9-0.9,1.9-1.3,3.2-1.3c1.3,0,2.3,0.4,3.2,1.3c0.9,0.9,1.4,2,1.4,3.2c0,0.2,0,0.4-0.1,0.5v17.7
				 M-352.3,289.4v0.2c0,0.2,0,0.3-0.1,0.5v17.4 M-325.4,289.4v0.2c0,0.2,0,0.3-0.1,0.5v17.4 M-325.2,315.8h9.9v9.2h-9.9h-9.9v-9.2
				H-325.2v9.2 M-308.7,303.8v4.2 M-308.7,361.9h14.2v-25.8c0-0.3,0-0.5,0-0.8c0-5.6,2-10.3,5.9-14.3c4-3.9,8.7-5.9,14.3-5.9
				c0.1,0,0.1,0,0.2,0h0.3c0.1,0,0.1,0,0.2,0c5.6,0,10.3,2,14.2,5.9c4,4,6,8.7,6,14.3c0,0.3,0,0.6-0.1,0.8v25.8h14.2v-53.9v-4.2
				h-34.5h-0.3 M-395.5,273.6h86.9 M-442.3,213.1h4.4 M-433.6,194.2v7.1h6.9h8.5 M-433.6,213.1v-11.8 M-426.6,201.3v10.5
				 M-449.2,257.4v-10.2l0.2-0.3h-4.1 M-441.3,257.7c0.1-1,0.4-1.8,1.1-2.5c0.8-0.8,1.7-1.1,2.8-1.1c1.1,0,2,0.4,2.8,1.1
				c0.4,0.4,0.7,0.8,0.9,1.3c0.2,0.4,0.2,0.8,0.2,1.2v5.5 M-425.9,248.7c-0.9,1-1.4,2.1-1.4,3.5c0,0.1,0,0.1,0,0.2v10l9.8-0.2v-9.9
				c0-0.1,0-0.1,0-0.2c0-1.4-0.5-2.5-1.4-3.5c-0.9-0.9-2-1.4-3.4-1.4h-0.2C-423.8,247.3-424.9,247.8-425.9,248.7z M-438.1,300.1h7.8
				v-10.5 M-422.3,289.5v10.5h7.8v-10.5 M-430.2,300.1h7.9v19.8 M-430.2,300.1v19.8 M-406.6,300.1h-7.9v19.8 M-458,361.9h8.8
				 M-335,361.9h18.2 M-387.8,361.9h18.2 M-361.4,361.9h18.2 M-438.1,361.9h31.5 M-94.5,246.8h-4.1l0.2,0.3v10.2v104.6h6.9
				 M-98.5,257.4c-0.1-0.8-0.5-1.5-1.1-2.2c-0.8-0.8-1.7-1.1-2.8-1.1c-1.1,0-2,0.4-2.8,1.1c-0.7,0.7-1.1,1.5-1.2,2.5v0.7
				c0,0.3,0,0.5,0,0.7c0,1.4,0,2.7,0,4 M-106.4,257.7c-0.1-1-0.4-1.8-1.1-2.5c-0.8-0.8-1.7-1.1-2.8-1.1c-1.1,0-2,0.4-2.8,1.1
				c-0.4,0.4-0.7,0.8-0.9,1.3c-0.2,0.4-0.3,0.8-0.3,1.2v5.5 M-136.6,194.2v7.1h7h8.4h7v-7.1 M-109.8,213.1h-4.3h-22.4h-4.3
				l-11.2,33.8h15.5l11.2-10.8l11.2,10.8h15.5L-109.8,213.1h4.4 M-114.1,213.1v-11.8 M-121.1,201.3v10.5 M-129.6,201.3v10.5
				 M-136.6,213.1v-11.8 M-145.3,213.1h4.4 M-152.1,246.8l-0.2,0.3v7.2v3c0.2-0.8,0.5-1.5,1.1-2.2c0.8-0.8,1.7-1.1,2.8-1.1
				c1.1,0,2,0.4,2.8,1.1c0.8,0.7,1.2,1.5,1.2,2.5c0.1-1,0.4-1.8,1.1-2.5c0.8-0.8,1.7-1.1,2.8-1.1c1.1,0,2,0.4,2.8,1.1
				c0.4,0.4,0.7,0.8,0.9,1.3c0.2,0.4,0.3,0.8,0.3,1.2v5.5 M-144.3,263c0-1.3,0-2.6,0-4c0-0.2,0-0.4,0-0.7v-0.7 M-156.2,246.8h4.1
				 M-130.3,262.2v-9.9c0-0.1,0-0.1,0-0.2c0-1.4,0.5-2.5,1.4-3.5c1-0.9,2.1-1.4,3.4-1.4c0.1,0,0.1,0,0.2,0h0.2
				c1.3,0,2.4,0.5,3.4,1.4c0.9,1,1.4,2.1,1.4,3.5c0,0.1,0,0.1,0,0.2v9.9H-130.3z M-141.1,300.1v-10.5c0.7-2.8,2.1-5.2,4.3-7.4
				c3.2-3.2,7-4.8,11.5-4.8h0.1c4.4,0.1,8.2,1.7,11.4,4.8c2.2,2.2,3.6,4.6,4.3,7.4v10.5v19.8h-7.9h-7.8h-7.8h-7.9V300.1h7.9v-10.5
				h-7.9 M-133.2,289.5h7.8h7.8h7.9 M-133.2,300.1h7.8v-10.5 M-109.6,300.1h-7.9v19.8 M-117.5,289.5v10.5h-7.8v19.8 M-196.3,307.4
				V290c0-0.2,0-0.3,0-0.5v-0.2c0-1.2-0.5-2.2-1.4-3.1c-0.9-0.9-1.9-1.3-3.2-1.3c-1.3,0-2.3,0.4-3.2,1.3c-0.9,0.9-1.4,2-1.4,3.2
				c0,0.2,0,0.4,0.1,0.5v18.1h26.9V290c-0.1-0.2-0.1-0.3-0.1-0.5c0-1.3,0.5-2.3,1.4-3.2c0.9-0.9,2-1.3,3.2-1.3
				c1.3,0,2.3,0.4,3.2,1.3c0.9,0.9,1.3,2,1.3,3.2c0.1-1.2,0.5-2.3,1.4-3.2c0.9-0.9,2-1.3,3.2-1.3c1.3,0,2.3,0.4,3.2,1.3
				c0.9,0.9,1.4,2,1.4,3.2c0,0.2,0,0.4,0,0.5v17.7 M-169.4,289.4v0.2c0,0.2,0,0.3,0,0.5v17.4 M-239.3,361.9h7.4V344
				c0-2.6,0.9-4.7,2.7-6.5c1.8-1.8,3.9-2.6,6.4-2.6c2.5,0,4.7,0.9,6.5,2.6c1.8,1.8,2.6,3.9,2.6,6.5v17.9h8.3V344
				c0-2.6,0.9-4.7,2.6-6.5c1.8-1.8,4-2.6,6.5-2.6c2.5,0,4.6,0.9,6.4,2.6c1.8,1.8,2.7,3.9,2.7,6.5v17.9h8.3V344
				c0-2.6,0.9-4.7,2.6-6.5c1.8-1.8,4-2.6,6.5-2.6c2.5,0,4.6,0.9,6.4,2.6c1.8,1.8,2.7,3.9,2.7,6.5v17.9h8.4v-53.9h-26.2
				 M-168.8,315.8h9.9v9.2h-9.9h-9.9v-9.2H-168.8v9.2 M-152.3,361.9h11.1v-19.3c0.7-2.7,2.1-5.1,4.3-7.3c3.2-3.2,7-4.8,11.5-4.8h0.1
				c4.4,0.1,8.2,1.7,11.4,4.8c2.2,2.2,3.6,4.6,4.3,7.3v19.3h11.1 M-133.2,300.1v19.8 M-152.3,308.1v-34.1h-87.1v29.9 M-152.3,273.9
				v-16.6 M-257.7,218v2.1c0.1-0.4,0.1-0.7,0.1-1.1C-257.7,218.7-257.7,218.3-257.7,218c-0.2-1.4-0.8-2.6-1.9-3.6
				c-1.3-1.3-2.9-2-4.7-2c-1.8,0-3.3,0.7-4.6,2c-1.3,1.3-2,2.9-2,4.7c0,0.2,0,0.4,0.1,0.7v27.1h7.8h8.1v8.3h-8.1h-7.8h-6.5h-7.9
				 M-290.3,220.1c-0.1-0.4-0.1-0.7-0.1-1.1c0-0.4,0-0.7,0.1-1.1 M-273.8,198.2v11h2.6 M-274.1,198.2v11h0.3 M-276.9,209.2h2.7
				 M-270.8,255.1v-8.3h-6.5v8.3 M-262.9,246.8v8.3 M-239.3,178V228v26.4h87.1 M-239.3,228h-18.4v17.8 M-257.7,220.1v7.9
				 M-258.6,303.5v-27.7c0-1.1,0-1.9,0-2.5c0-0.4,0-0.7,0-0.8c-0.2-1.8-0.9-3.4-2.2-4.7c-1.5-1.5-3.3-2.2-5.5-2.2
				c-2.1,0-3.9,0.7-5.4,2.2c-1.6,1.6-2.3,3.4-2.3,5.5c0,0.2,0,0.3,0,0.5h0.2v30.1 M-239.3,308.1h7V290c0-0.2,0-0.3,0-0.5
				c0-1.3,0.5-2.3,1.4-3.2c0.9-0.9,2-1.3,3.2-1.3c1.2,0,2.3,0.4,3.2,1.3c0.9,0.9,1.3,1.9,1.4,3.1c0-1.2,0.5-2.2,1.4-3.1
				c0.9-0.9,1.9-1.3,3.2-1.3c1.3,0,2.3,0.4,3.2,1.3c0.9,0.9,1.4,2,1.4,3.2c0,0.2,0,0.4-0.1,0.5v17.7 M-274.1,273.7L-274.1,273.7
				 M-222.5,315.8h9.9v9.2h-9.9h-9.9v-9.2H-222.5v9.2 M-196.3,289.3c0-1.2,0.5-2.2,1.4-3.1c0.9-0.9,2-1.3,3.2-1.3
				c1.2,0,2.3,0.4,3.2,1.3c0.9,0.9,1.4,2,1.4,3.2c0,0.2,0,0.4,0,0.5v17.7 M-223.2,289.3v0.2c0,0.2,0,0.3,0,0.5v17.4 M-195.1,315.8
				h9.9v9.2h-9.9h-9.9v-9.2H-195.1v9.2 M-239.3,254.4v19.6 M-232.3,308.1h27 M-187.2,361.9h-18.2 M-213.7,361.9H-232 M-141.1,361.9
				h31.5 M-160.7,361.9h-18.2 M-294.5,361.9h40.9 M-308.7,178V228"/>
		</g>
	</g>
	<g transform="matrix( -0.567596435546875, 0, 0, -0.567596435546875, 277.2,192.8) ">
		<g>
			<g id="Layer0_0_MEMBER_0_FILL">
				<path class="st0" d="M725.4,146.7c0,1.7,0.6,3.1,1.8,4.4c1.2,1.2,2.7,1.8,4.4,1.8h5.3c1.7,0,3.2-0.6,4.4-1.8
					c1.2-1.3,1.8-2.7,1.8-4.4s-0.6-3.1-1.8-4.3c-1.2-1.3-2.7-1.9-4.4-1.9h-5.3c-1.7,0-3.2,0.6-4.4,1.9
					C726,143.6,725.4,145,725.4,146.7z"/>
			</g>
		</g>
	</g>
	<g transform="matrix( -0.567596435546875, 0, 0, -0.567596435546875, 264.35,192.8) ">
		<g>
			<g id="Layer0_0_MEMBER_1_FILL">
				<path class="st0" d="M843.6,142.4c-1.2-1.3-2.7-1.9-4.4-1.9h-5.3c-1.8,0-3.2,0.6-4.4,1.9c-1.2,1.2-1.7,2.6-1.7,4.3
					s0.6,3.1,1.9,4.4c1.2,1.2,2.6,1.8,4.3,1.8h5.3c1.7,0,3.2-0.6,4.4-1.8c1.2-1.3,1.8-2.7,1.8-4.4S844.8,143.6,843.6,142.4z"/>
			</g>
		</g>
	</g>
	<g transform="matrix( -0.567596435546875, 0, 0, -0.567596435546875, 888.7,282.05) ">
		<g>
			<g id="Layer0_0_MEMBER_2_FILL">
				<path class="st0" d="M1829.9,308.2c1.2,1.2,2.6,1.8,4.3,1.8h79c1.7,0,3.2-0.6,4.4-1.8c1.2-1.3,1.8-2.7,1.8-4.4
					c0-1.6-0.6-3-1.9-4.3c-1.3-1.3-2.7-1.9-4.3-1.9h-4.1c-1.7,0-3.2-0.6-4.4-1.8c-1.2-1.2-1.8-2.6-1.8-4.3c0-1.7,0.6-3.1,1.8-4.3
					c1.2-1.3,2.6-1.9,4.3-1.9h4.1c0.5,0,0.9-0.1,1.4-0.2v0.2h3.5c0.5,0,1-0.1,1.4-0.2v0.2h3.5c0.5,0,0.9-0.1,1.4-0.2v0.2h3.5
					c0.5,0,0.9-0.1,1.4-0.2v0.2h3.5c0.4,0,0.9-0.1,1.3-0.2v0.2h3.5c1.7,0,3.2-0.6,4.4-1.8c1.2-1.3,1.8-2.7,1.8-4.4
					c0-1.7-0.6-3.2-1.8-4.4c-1.3-1.2-2.7-1.8-4.4-1.8h-3.5v0.1c-0.4-0.1-0.8-0.1-1.3-0.1h-3.5v0.2c-0.4-0.1-0.9-0.2-1.4-0.2h-3.5
					v0.2c-0.4-0.1-0.9-0.2-1.4-0.2h-3.5v0.2c-0.5-0.1-0.9-0.2-1.4-0.2h-3.5v0.2c-0.4-0.1-0.9-0.2-1.4-0.2h-50.2
					c-1.7,0-3.2,0.6-4.4,1.9c-1.2,1.2-1.8,2.6-1.8,4.3c0,1.7,0.6,3.2,1.9,4.4c1.2,1.2,2.6,1.8,4.3,1.8h26.7c1.7,0,3.2,0.6,4.4,1.9
					c1.2,1.2,1.7,2.6,1.7,4.3c0,1.6-0.6,3-1.8,4.3c-1.3,1.2-2.7,1.8-4.3,1.8h-55.3c-1.7,0-3.2,0.6-4.4,1.9c-1.2,1.2-1.8,2.6-1.8,4.3
					C1828,305.5,1828.7,307,1829.9,308.2z"/>
			</g>
		</g>
	</g>
	<g transform="matrix( -0.567596435546875, 0, 0, -0.567596435546875, 301.85,192.85) ">
		<g>
			<g id="Layer0_0_MEMBER_3_MEMBER_0_FILL">
				<path class="st0" d="M728.1,97.9c-1.3-1.2-2.7-1.8-4.4-1.8h-5.3c-1.7,0-3.2,0.6-4.4,1.9c-1.2,1.2-1.8,2.6-1.8,4.3
					c0,1.6,0.6,3,1.9,4.3c1.2,1.2,2.6,1.8,4.3,1.8h5.3c1.7,0,3.1-0.6,4.3-1.8c1.2-1.2,1.8-2.6,1.8-4.3S729.3,99.1,728.1,97.9z"/>
			</g>
		</g>
	</g>
	<g transform="matrix( -0.567596435546875, 0, 0, -0.567596435546875, 305.2,192.85) ">
		<g>
			<g id="Layer0_0_MEMBER_3_MEMBER_1_FILL">
				<path class="st0" d="M798.5,106.6c1.2-1.2,1.8-2.6,1.8-4.3s-0.6-3.1-1.8-4.3c-1.3-1.3-2.7-1.9-4.4-1.9H774
					c-1.7,0-3.2,0.6-4.4,1.9c-1.2,1.2-1.8,2.6-1.8,4.3s0.6,3.1,1.8,4.3s2.7,1.8,4.4,1.8h20.2C795.9,108.4,797.3,107.8,798.5,106.6z"
					/>
			</g>
		</g>
	</g>
	<g transform="matrix( -0.567596435546875, 0, 0, -0.567596435546875, 125.9,222.85) ">
		<g>
			<g id="Layer0_1_MEMBER_0_FILL">
				<path class="st0" d="M862.3,115.6c-1.2,1.2-1.8,2.6-1.8,4.3c0,1.7,0.6,3.1,1.8,4.4c1.2,1.2,2.7,1.8,4.4,1.8h5.3
					c1.7,0,3.2-0.6,4.4-1.8c1.2-1.3,1.8-2.7,1.8-4.4c0-1.7-0.6-3.1-1.8-4.3c-1.2-1.3-2.7-1.9-4.4-1.9h-5.3
					C865,113.7,863.5,114.3,862.3,115.6z"/>
			</g>
		</g>
	</g>
	<g transform="matrix( -0.567596435546875, 0, 0, -0.567596435546875, 113.05,222.85) ">
		<g>
			<g id="Layer0_1_MEMBER_1_FILL">
				<path class="st0" d="M978.7,115.6c-1.2-1.3-2.7-1.9-4.4-1.9H969c-1.8,0-3.2,0.6-4.4,1.9c-1.2,1.2-1.7,2.6-1.7,4.3
					c0,1.7,0.6,3.1,1.9,4.4c1.2,1.2,2.6,1.8,4.3,1.8h5.3c1.7,0,3.2-0.6,4.4-1.8c1.2-1.3,1.8-2.7,1.8-4.4
					C980.5,118.2,979.9,116.8,978.7,115.6z"/>
			</g>
		</g>
	</g>
	<g transform="matrix( -0.567596435546875, 0, 0, -0.567596435546875, 737.3,312.25) ">
		<g>
			<g id="Layer0_1_MEMBER_2_FILL">
				<path class="st0" d="M1965.1,281.3c1.2,1.2,2.6,1.8,4.3,1.8h79c1.7,0,3.2-0.6,4.4-1.8c1.2-1.3,1.8-2.7,1.8-4.4
					c0-1.6-0.6-3-1.9-4.3s-2.7-1.9-4.3-1.9h-4.1c-1.7,0-3.2-0.6-4.4-1.8c-1.2-1.2-1.8-2.6-1.8-4.3c0-1.7,0.6-3.1,1.8-4.3
					c1.2-1.3,2.6-1.9,4.3-1.9h4.1c0.5,0,0.9-0.1,1.4-0.2v0.2h3.5c0.5,0,1-0.1,1.4-0.2v0.2h3.5c0.5,0,0.9-0.1,1.4-0.2v0.2h3.5
					c0.5,0,0.9-0.1,1.4-0.2v0.2h3.5c0.4,0,0.9-0.1,1.3-0.2v0.2h3.5c1.7,0,3.2-0.6,4.4-1.8c1.2-1.3,1.8-2.7,1.8-4.4
					c0-1.7-0.6-3.2-1.8-4.4c-1.3-1.2-2.7-1.8-4.4-1.8h-3.5v0.1c-0.4-0.1-0.8-0.1-1.3-0.1h-3.5v0.2c-0.4-0.1-0.9-0.2-1.4-0.2h-3.5
					v0.2c-0.4-0.1-0.9-0.2-1.4-0.2h-3.5v0.2c-0.5-0.1-0.9-0.2-1.4-0.2h-3.5v0.2c-0.4-0.1-0.9-0.2-1.4-0.2H1998
					c-1.7,0-3.2,0.6-4.4,1.9c-1.2,1.2-1.8,2.6-1.8,4.3c0,1.7,0.6,3.2,1.9,4.4c1.2,1.2,2.6,1.8,4.3,1.8h26.7c1.7,0,3.2,0.6,4.4,1.9
					c1.2,1.2,1.7,2.6,1.7,4.3c0,1.6-0.6,3-1.8,4.3c-1.3,1.2-2.7,1.8-4.3,1.8h-55.3c-1.7,0-3.2,0.6-4.4,1.9c-1.2,1.2-1.8,2.6-1.8,4.3
					S1963.8,280,1965.1,281.3z"/>
			</g>
		</g>
	</g>
	<g transform="matrix( -0.567596435546875, 0, 0, -0.567596435546875, 150.3,223.15) ">
		<g>
			<g id="Layer0_1_MEMBER_3_MEMBER_0_FILL">
				<path class="st0" d="M863.4,79.5c1.2-1.2,1.8-2.6,1.8-4.3s-0.6-3.2-1.8-4.4c-1.3-1.2-2.7-1.8-4.4-1.8h-5.3
					c-1.7,0-3.2,0.6-4.4,1.9c-1.2,1.2-1.8,2.6-1.8,4.3c0,1.6,0.6,3,1.9,4.3c1.2,1.2,2.6,1.8,4.3,1.8h5.3
					C860.8,81.3,862.2,80.7,863.4,79.5z"/>
			</g>
		</g>
	</g>
	<g transform="matrix( -0.567596435546875, 0, 0, -0.567596435546875, 154.05,223.15) ">
		<g>
			<g id="Layer0_1_MEMBER_3_MEMBER_1_FILL">
				<path class="st0" d="M935.3,75.2c0-1.7-0.6-3.1-1.8-4.3c-1.3-1.3-2.7-1.9-4.4-1.9h-20.2c-1.7,0-3.2,0.6-4.4,1.9
					c-1.2,1.2-1.8,2.6-1.8,4.3c0,1.7,0.6,3.1,1.8,4.3c1.2,1.2,2.7,1.8,4.4,1.8h20.2c1.7,0,3.2-0.6,4.4-1.8
					C934.7,78.3,935.3,76.9,935.3,75.2z"/>
			</g>
		</g>
	</g>
</g>
</svg>
