<?xml version="1.0" encoding="utf-8"?>
<!-- Generator: Adobe Illustrator 16.0.0, SVG Export Plug-In . SVG Version: 6.00 Build 0)  -->
<!DOCTYPE svg PUBLIC "-//W3C//DTD SVG 1.1//EN" "http://www.w3.org/Graphics/SVG/1.1/DTD/svg11.dtd" [
	<!ENTITY ns_flows "http://ns.adobe.com/Flows/1.0/">
	<!ENTITY ns_extend "http://ns.adobe.com/Extensibility/1.0/">
	<!ENTITY ns_ai "http://ns.adobe.com/AdobeIllustrator/10.0/">
	<!ENTITY ns_graphs "http://ns.adobe.com/Graphs/1.0/">
	<!ENTITY ns_vars "http://ns.adobe.com/Variables/1.0/">
	<!ENTITY ns_imrep "http://ns.adobe.com/ImageReplacement/1.0/">
	<!ENTITY ns_sfw "http://ns.adobe.com/SaveForWeb/1.0/">
	<!ENTITY ns_custom "http://ns.adobe.com/GenericCustomNamespace/1.0/">
	<!ENTITY ns_adobe_xpath "http://ns.adobe.com/XPath/1.0/">
]>
<svg version="1.1" id="Capa_1" xmlns:x="&ns_extend;" xmlns:i="&ns_ai;" xmlns:graph="&ns_graphs;"
	 xmlns="http://www.w3.org/2000/svg" xmlns:xlink="http://www.w3.org/1999/xlink" xmlns:a="http://ns.adobe.com/AdobeSVGViewerExtensions/3.0/"
	 x="0px" y="0px" width="70px" height="45.5px" viewBox="444.88 166.25 70 45.5" enable-background="new 444.88 166.25 70 45.5"
	 xml:space="preserve">
<metadata><?xpacket begin="﻿" id="W5M0MpCehiHzreSzNTczkc9d"?>
<x:xmpmeta xmlns:x="adobe:ns:meta/" x:xmptk="Adobe XMP Core 5.3-c011 66.145661, 2012/02/06-14:56:27        ">
   <rdf:RDF xmlns:rdf="http://www.w3.org/1999/02/22-rdf-syntax-ns#">
      <rdf:Description rdf:about=""
            xmlns:xmp="http://ns.adobe.com/xap/1.0/"
            xmlns:xmpGImg="http://ns.adobe.com/xap/1.0/g/img/">
         <xmp:CreatorTool>Adobe Illustrator CS6 (Windows)</xmp:CreatorTool>
         <xmp:CreateDate>2018-01-12T19:22:29+05:30</xmp:CreateDate>
         <xmp:MetadataDate>2018-01-12T19:22:29+05:30</xmp:MetadataDate>
         <xmp:ModifyDate>2018-01-12T19:22:29+05:30</xmp:ModifyDate>
         <xmp:Thumbnails>
            <rdf:Alt>
               <rdf:li rdf:parseType="Resource">
                  <xmpGImg:width>256</xmpGImg:width>
                  <xmpGImg:height>168</xmpGImg:height>
                  <xmpGImg:format>JPEG</xmpGImg:format>
                  <xmpGImg:image>/9j/4AAQSkZJRgABAgEASABIAAD/7QAsUGhvdG9zaG9wIDMuMAA4QklNA+0AAAAAABAASAAAAAEA&#xA;AQBIAAAAAQAB/+4ADkFkb2JlAGTAAAAAAf/bAIQABgQEBAUEBgUFBgkGBQYJCwgGBggLDAoKCwoK&#xA;DBAMDAwMDAwQDA4PEA8ODBMTFBQTExwbGxscHx8fHx8fHx8fHwEHBwcNDA0YEBAYGhURFRofHx8f&#xA;Hx8fHx8fHx8fHx8fHx8fHx8fHx8fHx8fHx8fHx8fHx8fHx8fHx8fHx8fHx8f/8AAEQgAqAEAAwER&#xA;AAIRAQMRAf/EAaIAAAAHAQEBAQEAAAAAAAAAAAQFAwIGAQAHCAkKCwEAAgIDAQEBAQEAAAAAAAAA&#xA;AQACAwQFBgcICQoLEAACAQMDAgQCBgcDBAIGAnMBAgMRBAAFIRIxQVEGE2EicYEUMpGhBxWxQiPB&#xA;UtHhMxZi8CRygvElQzRTkqKyY3PCNUQnk6OzNhdUZHTD0uIIJoMJChgZhJRFRqS0VtNVKBry4/PE&#xA;1OT0ZXWFlaW1xdXl9WZ2hpamtsbW5vY3R1dnd4eXp7fH1+f3OEhYaHiImKi4yNjo+Ck5SVlpeYmZ&#xA;qbnJ2en5KjpKWmp6ipqqusra6voRAAICAQIDBQUEBQYECAMDbQEAAhEDBCESMUEFURNhIgZxgZEy&#xA;obHwFMHR4SNCFVJicvEzJDRDghaSUyWiY7LCB3PSNeJEgxdUkwgJChgZJjZFGidkdFU38qOzwygp&#xA;0+PzhJSktMTU5PRldYWVpbXF1eX1RlZmdoaWprbG1ub2R1dnd4eXp7fH1+f3OEhYaHiImKi4yNjo&#xA;+DlJWWl5iZmpucnZ6fkqOkpaanqKmqq6ytrq+v/aAAwDAQACEQMRAD8A9U4q7FXYq7FXYq7FXYq7&#xA;FXYq7FXYq7FXYq7FXYq7FXYq7FXYq7FXYq7FXYq7FXYq7FXYq7FXYq7FXYq7FXYq7FXYq7FXYq7F&#xA;XYq7FXYq7FXYq7FXYq7FXYq7FXYq7FXYq7FXYq7FXYq7FXYq7FXYq7FXYq7FXYq7FXYq7FXYq7FX&#xA;Yq7FXYq7FXYq7FXYq7FXYq7FXYq7FXYq7FXYq7FXYq7FXYq7FXYq7FXYq7FXYq7FXYq7FXYq7FXY&#xA;q7FXYq7FXYq7FXYq7FXYq7FXYq7FXYq7FXYq7FXYq7FXYq7FXYq7FXYq7FXYq7FXYq7FXYq7FXYq&#xA;7FXYq7FXYq7FXYq7FXYq7FXYq7FXYq7FXYq7FXYq7FXYq7FXYq7FXYq7FXYq7FXYq7FXYq7FXYq7&#xA;FXYq7FXYq7FXYq7FXYq7FXYq7FXYq7FXYq7FXYq7FXYq7FXYq7FXYq7FXYq7FXYq7FXYq7FXYq7F&#xA;XYq7FXYq7FXYq7FXYq7FXYq7FXYq7FXYq7FXYq7FXYq7FXYq7FXYq7FXYq7FXYq7FXYq7FXYq7FX&#xA;Yq7FXYq7FXYq7FXYq7FXYq7FXYq7FXYq7FXYq7FXYq7FXYq7FXYq7FXYq7FXYq7FXYq7FXYq7FXY&#xA;q7FXYq7FXYq7FXYq7FXYq7FXYq7FXYq7FXYq7FXYq7FXYq7FXYq7FXYq7FXYq7FXYq7FXYq7FXYq&#xA;7FXYq7FXYq7FXYq7FXYq7FXYq7FXYq7FXYq7FXYq7FXYq7FXYq7FXYq7FXYq7FXYq7FXYq7FXYq7&#xA;FXYq7FXYq7FXYq7FXYq7FXYq7FXYq7FXYq7FXYq7FXYq7FXYq7FXYq7FXYq7FXYq7FXYq7FXYq7F&#xA;XYq7FXYq7FXYq7FXYq7FXYq7FXYq7FXYq7FXYq7FXYq7FXYq7FXYq7FXYq7FXYq7FXYq7FXYq7FX&#xA;Yq7FXYq7FXYq7FXYq7FXYq7FXYq7FXYq7FXYq7FXYq7FXYq7FXYq7FXYq7FXYq7FXYq7FXYq7FXY&#xA;q7FXYq7FXYq7FXYq7FXYq7FXYq7FXYq7FXYq7FXYq7FXYq7FXYq7FXYq7FXYq7FXYq7FXYq7FXYq&#xA;7FXYq7FXYq7FXYq7FXYq7FXYq7FXYq7FXYq7FXYq7FXYq7FXYq7FXYq7FXYq7FXYq7FXYq7FXYq7&#xA;FXYq7FXYq7FXYq7FXYq7FXYq7FXYq7FXYq7FXYq7FXYq7FXYq7FXYq7FXYq7FXYq7FXYq7FXYq7F&#xA;XYq7FXYq7FXYq7FXYq7FXYq7FXYq7FXYq7FXYq7FXYq7FXYq7FXYq7FXYq7FXYq7FXYq7FXYq7FX&#xA;Yq7FXYq7FXYq7FXYq7FXYq7FXYq7FXYq7FXYq7FXYq7FXYq7FXYq7FXYq7FXYq7FXYq7FXYq7FXY&#xA;q7FXYq7FXYq7FXYq7FXYq7FXYq7FXYq7FXYq7FXYq7FXYq7FXYq7FXYq7FXYq7FXYq7FXYq7FXYq&#xA;7FXYq7FXYq7FXYq7FXYq7FXYq7FXYq7FXYq7FXYq7FXYq7FXYq7FXYq7FXYq7FXYq7FXYq7FXYq7&#xA;FXYq7FXYq7FXYq7FXYq7FXYq7FXYq7FXYq7FXYq7FXYq7FXYq7FXYq7FXYq7FXYq7FXYq7FXYq7F&#xA;XYq7FXYq7FXYq7FXYq7FXYq7FXYq7FXYq7FXYq7FXYq7FXYq7FXYq7FXYq7FXYq7FX//2Q==</xmpGImg:image>
               </rdf:li>
            </rdf:Alt>
         </xmp:Thumbnails>
      </rdf:Description>
      <rdf:Description rdf:about=""
            xmlns:xmpTPg="http://ns.adobe.com/xap/1.0/t/pg/"
            xmlns:stDim="http://ns.adobe.com/xap/1.0/sType/Dimensions#"
            xmlns:xmpG="http://ns.adobe.com/xap/1.0/g/">
         <xmpTPg:MaxPageSize rdf:parseType="Resource">
            <stDim:w>70.000000</stDim:w>
            <stDim:h>45.500000</stDim:h>
            <stDim:unit>Pixels</stDim:unit>
         </xmpTPg:MaxPageSize>
         <xmpTPg:NPages>1</xmpTPg:NPages>
         <xmpTPg:HasVisibleTransparency>False</xmpTPg:HasVisibleTransparency>
         <xmpTPg:HasVisibleOverprint>False</xmpTPg:HasVisibleOverprint>
         <xmpTPg:SwatchGroups>
            <rdf:Seq>
               <rdf:li rdf:parseType="Resource">
                  <xmpG:groupName>Default Swatch Group</xmpG:groupName>
                  <xmpG:groupType>0</xmpG:groupType>
               </rdf:li>
            </rdf:Seq>
         </xmpTPg:SwatchGroups>
      </rdf:Description>
      <rdf:Description rdf:about=""
            xmlns:dc="http://purl.org/dc/elements/1.1/">
         <dc:format>image/svg+xml</dc:format>
      </rdf:Description>
      <rdf:Description rdf:about=""
            xmlns:xmpMM="http://ns.adobe.com/xap/1.0/mm/"
            xmlns:stRef="http://ns.adobe.com/xap/1.0/sType/ResourceRef#"
            xmlns:stEvt="http://ns.adobe.com/xap/1.0/sType/ResourceEvent#">
         <xmpMM:DerivedFrom rdf:parseType="Resource">
            <stRef:instanceID>xmp.iid:EA90356D9FF7E711BCA7A390A55CEE02</stRef:instanceID>
            <stRef:documentID>xmp.did:EA90356D9FF7E711BCA7A390A55CEE02</stRef:documentID>
            <stRef:originalDocumentID>xmp.did:E990356D9FF7E711BCA7A390A55CEE02</stRef:originalDocumentID>
         </xmpMM:DerivedFrom>
         <xmpMM:DocumentID>xmp.did:EB90356D9FF7E711BCA7A390A55CEE02</xmpMM:DocumentID>
         <xmpMM:InstanceID>xmp.iid:EB90356D9FF7E711BCA7A390A55CEE02</xmpMM:InstanceID>
         <xmpMM:OriginalDocumentID>xmp.did:E990356D9FF7E711BCA7A390A55CEE02</xmpMM:OriginalDocumentID>
         <xmpMM:History>
            <rdf:Seq>
               <rdf:li rdf:parseType="Resource">
                  <stEvt:action>saved</stEvt:action>
                  <stEvt:instanceID>xmp.iid:E990356D9FF7E711BCA7A390A55CEE02</stEvt:instanceID>
                  <stEvt:when>2018-01-12T19:19:36+05:30</stEvt:when>
                  <stEvt:softwareAgent>Adobe Illustrator CS6 (Windows)</stEvt:softwareAgent>
                  <stEvt:changed>/</stEvt:changed>
               </rdf:li>
               <rdf:li rdf:parseType="Resource">
                  <stEvt:action>saved</stEvt:action>
                  <stEvt:instanceID>xmp.iid:EB90356D9FF7E711BCA7A390A55CEE02</stEvt:instanceID>
                  <stEvt:when>2018-01-12T19:22:29+05:30</stEvt:when>
                  <stEvt:softwareAgent>Adobe Illustrator CS6 (Windows)</stEvt:softwareAgent>
                  <stEvt:changed>/</stEvt:changed>
               </rdf:li>
            </rdf:Seq>
         </xmpMM:History>
      </rdf:Description>
   </rdf:RDF>
</x:xmpmeta>
                                                                                                    
                                                                                                    
                                                                                                    
                                                                                                    
                                                                                                    
                                                                                                    
                                                                                                    
                                                                                                    
                                                                                                    
                                                                                                    
                                                                                                    
                                                                                                    
                                                                                                    
                                                                                                    
                                                                                                    
                                                                                                    
                                                                                                    
                                                                                                    
                                                                                                    
                                                                                                    
                           
<?xpacket end="w"?>
	</metadata>
<g>
	<path fill="#FFFFFF" d="M479.88,175.583c0.646,0,1.167-0.521,1.167-1.167v-7c0-0.645-0.521-1.167-1.167-1.167
		c-0.645,0-1.167,0.521-1.167,1.167v7C478.713,175.062,479.235,175.583,479.88,175.583z"/>
	<path fill="#FFFFFF" d="M505.547,201.25c0,0.645,0.521,1.167,1.166,1.167h7c0.646,0,1.167-0.521,1.167-1.167
		s-0.521-1.167-1.167-1.167h-7C506.068,200.083,505.547,200.605,505.547,201.25z"/>
	<path fill="#FFFFFF" d="M446.046,202.417h7c0.646,0,1.167-0.521,1.167-1.167s-0.521-1.167-1.167-1.167h-7
		c-0.645,0-1.167,0.521-1.167,1.167S445.401,202.417,446.046,202.417z"/>
	<path fill="#FFFFFF" d="M498.854,183.442c0.299,0,0.598-0.114,0.825-0.342l6.691-6.692c0.456-0.456,0.456-1.193,0-1.65
		c-0.456-0.456-1.193-0.456-1.649,0l-6.692,6.692c-0.456,0.456-0.456,1.193,0,1.649
		C498.257,183.329,498.556,183.442,498.854,183.442z"/>
	<path fill="#FFFFFF" d="M460.081,183.1c0.228,0.228,0.526,0.342,0.825,0.342s0.597-0.114,0.825-0.342
		c0.456-0.456,0.456-1.193,0-1.649l-6.692-6.692c-0.456-0.456-1.193-0.456-1.65,0c-0.456,0.457-0.456,1.194,0,1.65L460.081,183.1z"
		/>
	<path fill="#FFFFFF" d="M503.506,191.221c0.189,0.445,0.621,0.71,1.074,0.71c0.153,0,0.309-0.029,0.457-0.092l3.222-1.369
		c0.594-0.253,0.871-0.938,0.618-1.531c-0.253-0.594-0.942-0.867-1.53-0.618l-3.223,1.368
		C503.53,189.945,503.254,190.629,503.506,191.221z"/>
	<path fill="#FFFFFF" d="M451.319,190.968l3.245,1.311c0.143,0.059,0.292,0.085,0.438,0.085c0.462,0,0.898-0.275,1.081-0.729
		c0.242-0.599-0.046-1.278-0.644-1.519l-3.244-1.312c-0.599-0.242-1.278,0.048-1.519,0.644
		C450.433,190.046,450.721,190.726,451.319,190.968z"/>
	<path fill="#FFFFFF" d="M468.322,177.005c0.189,0.445,0.621,0.71,1.074,0.71c0.153,0,0.308-0.029,0.457-0.092
		c0.594-0.253,0.87-0.938,0.618-1.531l-1.369-3.222c-0.253-0.594-0.944-0.868-1.531-0.619c-0.594,0.253-0.87,0.938-0.618,1.531
		L468.322,177.005z"/>
	<path fill="#FFFFFF" d="M489.494,177.452c0.144,0.059,0.292,0.085,0.438,0.085c0.462,0,0.898-0.275,1.082-0.729l1.311-3.245
		c0.242-0.599-0.046-1.278-0.644-1.519c-0.598-0.24-1.277,0.046-1.519,0.644l-1.312,3.244
		C488.608,176.532,488.897,177.211,489.494,177.452z"/>
	<path fill="#FFFFFF" d="M513.713,209.417h-10.768c0.936-2.627,1.435-5.362,1.435-8.167c0-13.509-10.991-24.5-24.5-24.5
		s-24.5,10.991-24.5,24.5c0,2.805,0.5,5.539,1.435,8.167h-10.769c-0.645,0-1.167,0.521-1.167,1.167c0,0.645,0.521,1.167,1.167,1.167
		h11.691h44.283h11.692c0.646,0,1.167-0.521,1.167-1.167C514.88,209.938,514.358,209.417,513.713,209.417z M459.279,209.417
		c-1.04-2.61-1.565-5.354-1.565-8.167c0-12.223,9.943-22.167,22.167-22.167c12.224,0,22.167,9.943,22.167,22.167
		c0,2.813-0.526,5.557-1.566,8.167H459.279z"/>
	<polygon fill="#FFFFFF" points="470.888,194.592 472.538,196.242 478.713,190.066 478.713,203.583 481.047,203.583 
		481.047,190.066 487.222,196.242 488.871,194.592 479.88,185.601 	"/>
</g>
</svg>
