<?xml version="1.0" encoding="utf-8"?>
<!-- Generator: Adobe Illustrator 21.0.0, SVG Export Plug-In . SVG Version: 6.00 Build 0)  -->
<svg version="1.1" id="Layer_1" xmlns="http://www.w3.org/2000/svg" xmlns:xlink="http://www.w3.org/1999/xlink" x="0px" y="0px"
	 viewBox="0 0 550 400" style="enable-background:new 0 0 550 400;" xml:space="preserve">
<style type="text/css">
	.st0{fill:none;stroke:#FFFFFF;stroke-width:2;stroke-linecap:round;stroke-linejoin:round;}
</style>
<g>
	<g transform="matrix( 1, 0, 0, 1, 0,0) ">
		<g>
			<path id="Layer1_0_1_STROKES" class="st0" d="M-190,121.7V90c0.7-0.1,1.2-0.3,1.7-0.8c0.6-0.5,0.8-1.2,0.8-2v-7.5
				c0-0.7-0.3-1.3-0.8-1.9c-0.6-0.6-1.2-0.8-2-0.8h-6.3c-0.8,0-1.5,0.3-2,0.8c-0.6,0.6-0.8,1.2-0.8,1.9v7.5c0,0.8,0.3,1.5,0.8,2
				c0.5,0.5,1,0.8,1.7,0.8l-0.6,36.2 M-164.5,132.2l0.2,4.5c0,1.4-0.5,2.5-1.4,3.5c-0.9,0.9-2,1.4-3.4,1.4c-1.3,0-2.4-0.5-3.4-1.4
				c-1-1-1.4-2.1-1.4-3.5l0.5-4.4"/>
		</g>
	</g>
	<g transform="matrix( 0.3553924560546875, 0, 0, 0.3553924560546875, -147.9,45.6) ">
		<g transform="matrix( 2.81378173828125, 0, 0, 2.81378173828125, 416.15,-128.3) ">
			<path id="Layer1_2_1_STROKES" class="st0" d="M-74.3,253.1c-3.9,0.4-6.7,0.2-8.4-0.8c-2.4-1.4-4.3-3.3-5.8-5.7l-17.3-29.1
				c-1.4-2.1-3.2-3.5-5.6-4.1c-2.5-0.6-4.8-0.3-6.9,1l-35.5,21.3c-2.4,1.4-4,3.4-4.8,6c-1,2.7-0.8,5.2,0.4,7.6
				c1.3,2.8,3.4,4.7,6.4,5.6c3,0.9,5.8,0.5,8.4-1l5.3-3.2l9.5,15.9c4.5,7.4,7.8,15.5,9.9,24.2c1.2,4.8,1.8,9.7,2,14.8
				c0.2,1.5,0.2,3.8,0.2,6.9c-0.7,24.7-1.4,46-2.3,63.7l-5.3,81.4v0.2l-2,21.1c-1.5,15.6-3.2,31.1-5.3,46.6
				c-1.3,9.4-2,14.5-2.1,15.3l-12.9,72.4v0.2l-14.9,60.9h-0.2v20.6H42.1v-20.6h0.1C25.3,614.7,13.3,547.8,6.2,473.5
				c-1.3-14.1-2.4-26.7-3.2-38l-3.2-56.1l-0.2-0.2l-0.8-18.8c-1-23.3-1.7-48.2-2.2-74.7c-0.2-8.2-3.1-15.3-8.7-21.2
				c-5.5-6-12.3-9.3-20.4-10h-10"/>
		</g>
	</g>
	<g transform="matrix( 0.467315673828125, 0, 0, 0.467315673828125, 137.25,-63.2) ">
		<g transform="matrix( 2.1398773193359375, 0, 0, 2.1398773193359375, -293.65,135.2) ">
			<path id="Layer1_3_1_STROKES" class="st0" d="M-626.4,614.5l-6.3,6.5c-0.8,10.8-4,20.8-9.7,29.9c-5.8,9.2-13.4,16.5-22.8,21.8
				l-21.2,12.1l-7.5,30.1c-2.2,9-7,16.3-14.2,22c-7.3,5.7-15.5,8.6-24.8,8.6l11.4-46.3v-0.2l6.1-31.6c0.8-4.2,1.4-8.4,2-12.7
				l1.7-10.8c0.1-0.6,0.6-4.5,1.6-11.6c1.6-11.8,3-23.6,4.1-35.5l1.5-16v-0.1l4-61.9l65.7-92.5c6.1,0.6,11.3,3.1,15.5,7.6
				c4.3,4.6,6.5,10,6.6,16.2c0.4,20.1,1,39.1,1.7,56.8l0.6,14.3l0.1,0.2l2.5,42.6c0.7,9.3-0.6,18.3-3.8,27.1
				C-614.9,600.1-619.8,607.8-626.4,614.5z"/>
		</g>
	</g>
	<g transform="matrix( 0.467315673828125, 0, 0, 0.467315673828125, 137.25,-63.2) ">
		<g transform="matrix( 2.1398773193359375, 0, 0, 2.1398773193359375, -293.65,135.2) ">
			<path id="Layer1_4_1_STROKES" class="st0" d="M-595.8,530.6l-12.7,23.9c-1.9-27.6-3.2-62.4-4.1-104.3c-0.1-1.8-0.3-3.3-0.5-4.7
				l19.6,52.1c2.1,5.4,2.9,11,2.5,16.7C-591.5,520.1-593.1,525.5-595.8,530.6z"/>
		</g>
	</g>
	<g transform="matrix( 0.467315673828125, 0, 0, 0.467315673828125, 137.25,-63.2) ">
		<g transform="matrix( 2.1398773193359375, 0, 0, 2.1398773193359375, -293.65,135.2) ">
			<path id="Layer1_6_1_STROKES" class="st0" d="M-574.5,860.6h-162v-87.4h162V860.6z"/>
		</g>
	</g>
	<g transform="matrix( 0.467315673828125, 0, 0, 0.467315673828125, 137.25,-63.2) ">
		<g transform="matrix( 2.1398773193359375, 0, 0, 2.1398773193359375, -293.65,135.2) ">
			<path id="Layer1_7_1_STROKES" class="st0" d="M-563.4,860.6h-184.3c-4.2,0-7.8,1.5-10.8,4.4c-3,3-4.4,6.6-4.4,10.8v13.4h214.8
				v-13.4c0-4.2-1.5-7.8-4.4-10.8C-555.6,862.1-559.2,860.6-563.4,860.6z"/>
		</g>
	</g>
	<g transform="matrix( 0.467315673828125, 0, 0, 0.467315673828125, 137.25,-63.2) ">
		<g transform="matrix( 2.1398773193359375, 0, 0, 2.1398773193359375, -293.65,135.2) ">
			<path id="Layer1_8_1_STROKES" class="st0" d="M-513.4,938h-284.2v-24.3c0-6.8,2.4-12.6,7.2-17.3c4.8-4.8,10.5-7.2,17.3-7.2H-538
				c6.8,0,12.6,2.4,17.4,7.2c4.8,4.8,7.2,10.5,7.2,17.3V938z"/>
		</g>
	</g>
	<g transform="matrix( 0.467315673828125, 0, 0, 0.467315673828125, 137.25,-63.2) ">
		<g transform="matrix( 2.1398773193359375, 0, 0, 2.1398773193359375, -293.65,135.2) ">
			<path id="Layer1_9_1_STROKES" class="st0" d="M-573.1,756.3v4.9h-16.5v-4.9h-8.2v4.9h-16.5v-4.9h-8.3v4.9h-16.5v-4.9h-8.2v4.9
				h-16.5v-4.9h-8.2v4.9h-16.5v-4.9h-8.3v4.9h-16.5v-4.9h-8.2v4.9H-738v-4.9h-8.2v16.9h181.3v-16.9H-573.1z"/>
		</g>
	</g>
	<g transform="matrix( 0.467315673828125, 0, 0, 0.467315673828125, 137.25,-63.2) ">
		<g transform="matrix( 2.1398773193359375, 0, 0, 2.1398773193359375, -293.65,135.2) ">
			<path id="Layer1_11_1_STROKES" class="st0" d="M-632.7,377.5v20c0,5.1-1.5,9.7-4.6,13.8c-2.1,2.7-4.6,4.9-7.7,6.5
				c-3.2,1.7-6.5,2.5-10.1,2.6h-0.5c-6.3,0-11.7-2.2-16.2-6.7c-4.5-4.5-6.7-9.8-6.7-16.1v-20c0-4.4,1.6-8.2,4.7-11.3
				c3.2-3.2,7-4.7,11.4-4.7h13.6c4.4,0,8.2,1.6,11.4,4.7C-634.2,369.4-632.7,373.1-632.7,377.5z"/>
		</g>
	</g>
	<g transform="matrix( 0.467315673828125, 0, 0, 0.467315673828125, 137.25,-63.2) ">
		<g transform="matrix( 2.1398773193359375, 0, 0, 2.1398773193359375, -293.65,135.2) ">
			<path id="Layer1_12_1_STROKES" class="st0" d="M-634.1,384.6l-0.5-0.9c-1.5-2.7-3.5-4.7-5.9-6.2c-2.5-1.5-5.2-2.3-8.2-2.3h-6.1
				c1.7,4.6,4.5,8.4,8.5,11.4c4.1,3,8.6,4.5,13.6,4.7v-2.6v-0.6v-2.6l10.5-5.1c0.6-0.3,0.8-0.8,0.7-1.4c-0.2-0.7-0.6-1-1.3-1
				l-9.9,0.2v-0.6c0-0.9-0.1-1.8-0.2-2.6l0.1,0.3l8.9-8.1c0.6-0.6,0.7-1.2,0.3-1.9s-1-0.9-1.7-0.7l-10.6,3.2l0.2,0.3l-1.4-1.7
				l0.2,0.2l8.1-18.4c0.3-0.7,0.2-1.2-0.5-1.7c-0.6-0.4-1.2-0.4-1.7,0.2l-15.7,15l0.8,0.1 M-633.7,385.9l-0.3-0.8 M-633.2,387.3
				l-0.2-0.7 M-646.8,361.6l-2-0.2h0.2l-5-22.1c-0.3-1.1-0.9-1.6-2-1.6c-1.1,0-1.8,0.5-2,1.6l-5,22.1h0.2l-2,0.2l-0.8,0.1
				 M-664.3,361.6l-15.7-15c-0.5-0.5-1.1-0.6-1.7-0.2c-0.6,0.5-0.8,1-0.5,1.7l8.1,18.4l0.2-0.2l-1.4,1.7l0.2-0.3l-10.6-3.2
				c-0.8-0.3-1.3,0-1.7,0.7s-0.3,1.3,0.3,1.9l8.9,8.1l0.1-0.3c-0.2,0.9-0.2,1.7-0.2,2.6v0.6l-9.9-0.2c-0.7-0.1-1.1,0.3-1.3,1
				c-0.2,0.7,0.1,1.1,0.7,1.4l10.5,5.1v2.6v0.6v2.6c5-0.2,9.6-1.7,13.6-4.7c4-3,6.9-6.8,8.5-11.4h-6.1c-3,0-5.7,0.8-8.2,2.3
				c-2.4,1.5-4.4,3.5-5.9,6.2l-0.5,0.9 M-677.4,385.9l0.3-0.8 M-677.9,387.3l0.2-0.7 M-656.3,375.3h1.4"/>
		</g>
	</g>
	<g transform="matrix( 0.467315673828125, 0, 0, 0.467315673828125, 137.25,-63.2) ">
		<g transform="matrix( 2.1398773193359375, 0, 0, 2.1398773193359375, -293.65,135.2) ">
			<path id="Layer1_13_1_STROKES" class="st0" d="M-736.6,835.8h162"/>
		</g>
	</g>
	<g transform="matrix( 0.467315673828125, 0, 0, 0.467315673828125, 137.25,-63.2) ">
		<g transform="matrix( 2.1398773193359375, 0, 0, 2.1398773193359375, -293.65,135.2) ">
			<path id="Layer1_14_1_STROKES" class="st0" d="M-620.1,860.6H-691v-87.4h70.9V860.6z"/>
		</g>
	</g>
	<g transform="matrix( 0.467315673828125, 0, 0, 0.467315673828125, 137.25,-63.2) ">
		<g transform="matrix( 2.1398773193359375, 0, 0, 2.1398773193359375, -293.65,135.2) ">
			<path id="Layer1_16_1_STROKES" class="st0" d="M-605.2,761.2v-53"/>
		</g>
	</g>
	<g transform="matrix( 0.467315673828125, 0, 0, 0.467315673828125, 137.25,-63.2) ">
		<g transform="matrix( 2.1398773193359375, 0, 0, 2.1398773193359375, -293.65,135.2) ">
			<path id="Layer1_17_1_STROKES" class="st0" d="M-628.9,761.2v-33.4"/>
		</g>
	</g>
	<g transform="matrix( 0.467315673828125, 0, 0, 0.467315673828125, 137.25,-63.2) ">
		<g transform="matrix( 2.1398773193359375, 0, 0, 2.1398773193359375, -293.65,135.2) ">
			<path id="Layer1_18_1_STROKES" class="st0" d="M-700.6,454l11-11.1"/>
		</g>
	</g>
	<g transform="matrix( 0.467315673828125, 0, 0, 0.467315673828125, 137.25,-63.2) ">
		<g transform="matrix( 2.1398773193359375, 0, 0, 2.1398773193359375, -293.65,135.2) ">
			<path id="Layer1_19_1_STROKES" class="st0" d="M-706.1,597l29.9-39"/>
		</g>
	</g>
	<g transform="matrix( 0.467315673828125, 0, 0, 0.467315673828125, 137.25,-63.2) ">
		<g transform="matrix( 2.1398773193359375, 0, 0, 2.1398773193359375, -293.65,135.2) ">
			<path id="Layer1_20_1_STROKES" class="st0" d="M-569.6,483.8l-47.5,48"/>
		</g>
	</g>
	<g transform="matrix( 0.467315673828125, 0, 0, 0.467315673828125, 137.25,-63.2) ">
		<g transform="matrix( 2.1398773193359375, 0, 0, 2.1398773193359375, -293.65,135.2) ">
			<path id="Layer1_22_1_STROKES" class="st0" d="M-707.6,323.7v-44.1"/>
		</g>
	</g>
	<g transform="matrix( -0.567596435546875, 0, 0, -0.567596435546875, 500.95,176.25) ">
		<g>
			<g id="Layer0_2_MEMBER_0_FILL">
				<path class="st0" d="M989.1,134.3c-1.2,1.2-1.8,2.6-1.8,4.3s0.6,3.1,1.8,4.4c1.2,1.2,2.7,1.8,4.4,1.8h5.3c1.7,0,3.2-0.6,4.4-1.8
					c1.2-1.3,1.8-2.7,1.8-4.4s-0.6-3.1-1.8-4.3c-1.2-1.3-2.7-1.9-4.4-1.9h-5.3C991.7,132.4,990.3,133,989.1,134.3z"/>
			</g>
		</g>
	</g>
	<g transform="matrix( -0.567596435546875, 0, 0, -0.567596435546875, 488.1,176.25) ">
		<g>
			<g id="Layer0_2_MEMBER_1_FILL">
				<path class="st0" d="M1105.4,134.3c-1.2-1.3-2.7-1.9-4.4-1.9h-5.3c-1.8,0-3.2,0.6-4.4,1.9c-1.2,1.2-1.7,2.6-1.7,4.3
					s0.6,3.1,1.9,4.4c1.2,1.2,2.6,1.8,4.3,1.8h5.3c1.7,0,3.2-0.6,4.4-1.8c1.2-1.3,1.8-2.7,1.8-4.4S1106.6,135.5,1105.4,134.3z"/>
			</g>
		</g>
	</g>
	<g transform="matrix( -0.567596435546875, 0, 0, -0.567596435546875, 1112.35,265.45) ">
		<g>
			<g id="Layer0_2_MEMBER_2_FILL">
				<path class="st0" d="M2091.8,300.2c1.2,1.2,2.6,1.8,4.3,1.8h79c1.7,0,3.2-0.6,4.4-1.8c1.2-1.3,1.8-2.7,1.8-4.4
					c0-1.6-0.6-3-1.9-4.3c-1.3-1.3-2.7-1.9-4.3-1.9h-4.1c-1.7,0-3.2-0.6-4.4-1.8c-1.2-1.2-1.8-2.6-1.8-4.3s0.6-3.1,1.8-4.3
					c1.2-1.3,2.6-1.9,4.3-1.9h4.1c0.5,0,0.9-0.1,1.4-0.2v0.2h3.5c0.5,0,1-0.1,1.4-0.2v0.2h3.5c0.5,0,0.9-0.1,1.4-0.2v0.2h3.5
					c0.5,0,0.9-0.1,1.4-0.2v0.2h3.5c0.4,0,0.9-0.1,1.3-0.2v0.2h3.5c1.7,0,3.2-0.6,4.4-1.8c1.2-1.3,1.8-2.7,1.8-4.4
					c0-1.7-0.6-3.2-1.8-4.4c-1.3-1.2-2.7-1.8-4.4-1.8h-3.5v0.1c-0.4-0.1-0.8-0.1-1.3-0.1h-3.5v0.2c-0.4-0.1-0.9-0.2-1.4-0.2h-3.5
					v0.2c-0.4-0.1-0.9-0.2-1.4-0.2h-3.5v0.2c-0.5-0.1-0.9-0.2-1.4-0.2h-3.5v0.2c-0.4-0.1-0.9-0.2-1.4-0.2h-50.2
					c-1.7,0-3.2,0.6-4.4,1.9c-1.2,1.2-1.8,2.6-1.8,4.3c0,1.7,0.6,3.2,1.9,4.4c1.2,1.2,2.6,1.8,4.3,1.8h26.7c1.7,0,3.2,0.6,4.4,1.9
					c1.2,1.2,1.7,2.6,1.7,4.3c0,1.6-0.6,3-1.8,4.3c-1.3,1.2-2.7,1.8-4.3,1.8h-55.3c-1.7,0-3.2,0.6-4.4,1.9c-1.2,1.2-1.8,2.6-1.8,4.3
					C2089.9,297.4,2090.6,298.9,2091.8,300.2z"/>
			</g>
		</g>
	</g>
	<g transform="matrix( -0.567596435546875, 0, 0, -0.567596435546875, 525.5,176.25) ">
		<g>
			<g id="Layer0_2_MEMBER_3_MEMBER_0_FILL">
				<path class="st0" d="M990,98.5c1.2-1.2,1.8-2.6,1.8-4.3c0-1.7-0.6-3.2-1.8-4.4c-1.3-1.2-2.7-1.8-4.4-1.8h-5.3
					c-1.7,0-3.2,0.6-4.4,1.9c-1.2,1.2-1.8,2.6-1.8,4.3c0,1.6,0.6,3,1.9,4.3c1.2,1.2,2.6,1.8,4.3,1.8h5.3
					C987.4,100.3,988.8,99.7,990,98.5z"/>
			</g>
		</g>
	</g>
	<g transform="matrix( -0.567596435546875, 0, 0, -0.567596435546875, 528.95,176.25) ">
		<g>
			<g id="Layer0_2_MEMBER_3_MEMBER_1_FILL">
				<path class="st0" d="M1062.2,94.2c0-1.7-0.6-3.1-1.8-4.3c-1.3-1.3-2.7-1.9-4.4-1.9h-20.2c-1.7,0-3.2,0.6-4.4,1.9
					c-1.2,1.2-1.8,2.6-1.8,4.3c0,1.7,0.6,3.1,1.8,4.3s2.7,1.8,4.4,1.8h20.2c1.7,0,3.2-0.6,4.4-1.8
					C1061.5,97.3,1062.2,95.9,1062.2,94.2z"/>
			</g>
		</g>
	</g>
	<g transform="matrix( 0.567596435546875, 0, 0, 0.567596435546875, 350.25,161.5) ">
		<g>
			<g id="Layer0_3_MEMBER_0_FILL">
				<path class="st0" d="M-1064.2,100.7c-1.2,1.2-1.8,2.6-1.8,4.3s0.6,3.1,1.8,4.4c1.2,1.2,2.7,1.8,4.4,1.8h5.3
					c1.7,0,3.2-0.6,4.4-1.8c1.2-1.3,1.8-2.7,1.8-4.4s-0.6-3.1-1.8-4.3c-1.2-1.3-2.7-1.9-4.4-1.9h-5.3
					C-1061.6,98.8-1063,99.5-1064.2,100.7z"/>
			</g>
		</g>
	</g>
	<g transform="matrix( 0.35498046875, 0, 0, 0.35498046875, -146.9,46.05) ">
		<g>
			<g id="Layer0_3_MEMBER_1_FILL">
				<path class="st0" d="M-126.7,466.8h0.5l1.7-19.7h-75.9c-2.8,0-5.1,1-7,3c-1.9,1.9-2.9,4.2-2.9,6.9c0,2.7,1,5,3,7
					c1.9,1.9,4.2,2.9,6.9,2.9h42.6c2.7,0,5,1,6.9,3c1.9,1.9,2.8,4.2,2.8,6.9c0,2.6-1,4.8-2.9,6.9c-2,1.9-4.3,2.9-6.9,2.9h-88.4
					c-2.7,0-5,1-6.9,3c-2,2-2.9,4.3-2.9,6.9c0,2.6,1,4.9,3,6.9c2,2,4.2,2.9,6.9,2.9h109.5l4.5-21.6c-0.4-0.3-0.9-0.7-1.3-1.1
					c-1.9-1.9-2.9-4.2-2.9-6.9s1-4.9,2.9-6.9C-131.6,467.8-129.3,466.8-126.7,466.8z"/>
			</g>
		</g>
	</g>
	<polyline class="st0" points="-199.3,53.1 -198.4,64.1 -193.5,67.5 -193.4,75 	"/>
	<polyline class="st0" points="-185,49.2 -184.9,64 -193.5,67.5 	"/>
	<polyline class="st0" points="-194.8,48.8 -184.9,45.1 -185.6,39.8 -191.4,39.3 -189.1,30.1 -194,24.8 -192.5,30.1 -198.3,39.1 
		-195.8,41.6 	"/>
</g>
</svg>
